# xmcd
#
# Track frame offsets:
#	150
#	15896
#	33984
#	51203
#	69513
#	86535
#	106927
#	123177
#	145974
#	161740
#	179828
#	197047
#	215357
#	232378
#	252747
#	268997
#	303198
#
# Disc length: 4055 seconds
#
# Revision: 0
# Processed by: cddbd v1.5.1PL2 Copyright (c) Steve Scherf et al.
# Submitted via: audiograbber 1.83.01
#
DISCID=f90fd511
DTITLE=Various Artist - SC2462
DYEAR=2004
DGENRE=Karaoke
TTITLE0=McEntire, Reba - In My Daughter's Eyes
TTITLE1=Evans, Sara - Suds In The Bucket
TTITLE2=Clark, Terri - Girls Lie Too
TTITLE3=McEntire, Reba - Somebody
TTITLE4=Wilson, Gretchen - Redneck Woman
TTITLE5=Paisley, Brad and Allison Krauss - Whiskey Lullaby
TTITLE6=Wilson, Gretchen - Here For The Party
TTITLE7=Twain, Shania - Forever and Always
TTITLE8=McEntire, Reba - In My Daughter's Eyes (Vocal)
TTITLE9=Evans, Sara - Suds In The Bucket (Vocal)
TTITLE10=Clark, Terri - Girls Lie Too (Vocal)
TTITLE11=McEntire, Reba - Somebody (Vocal)
TTITLE12=Wilson, Gretchen - Redneck Woman (Vocal)
TTITLE13=Paisley, Brad and Allison Krauss - Whiskey Lullaby (Vocal)
TTITLE14=Wilson, Gretchen - Here For The Party (Vocal)
TTITLE15=Twain, Shania - Forever and Always (Vocal)
TTITLE16=Data - Data Track
EXTD=
EXTT0=
EXTT1=
EXTT2=
EXTT3=
EXTT4=
EXTT5=
EXTT6=
EXTT7=
EXTT8=
EXTT9=
EXTT10=
EXTT11=
EXTT12=
EXTT13=
EXTT14=
EXTT15=
EXTT16=
PLAYORDER=
